<?xml version="1.0" encoding="UTF-8"?><svg id="Layer_1" xmlns="http://www.w3.org/2000/svg" viewBox="0 0 438.79 135.66"><path d="m5.55,4.16h33.09c5.98,0,11.37,1.1,16.17,3.31,4.8,2.21,8.56,5.37,11.26,9.5,2.7,4.13,4.06,8.97,4.06,14.52,0,5.12-1.03,9.54-3.1,13.23-2.06,3.7-5.16,6.8-9.29,9.29l14.52,31.17v.85h-23.38l-12.27-26.36h-7.79v26.36H5.55V4.16Zm36.93,35.7c1.35-.82,2.37-1.96,3.04-3.42.68-1.46,1.01-3.04,1.01-4.75,0-2.85-.78-5.16-2.35-6.94-1.57-1.78-3.81-2.67-6.72-2.67h-8.65v19h8.75c1.92,0,3.56-.41,4.91-1.23Z" fill="#34d399"/><path d="m92.06,83.09c-4.45-2.52-7.9-6.03-10.35-10.51-2.46-4.48-3.72-9.71-3.79-15.69l-.11-2.24c-.07-5.76,1.03-11.01,3.31-15.74,2.28-4.73,5.67-8.47,10.19-11.21,4.52-2.74,9.98-4.11,16.38-4.11s11.44,1.3,15.96,3.9c4.52,2.6,7.97,6.26,10.35,10.99,2.38,4.73,3.58,10.19,3.58,16.38v.96c0,6.12-1.19,11.53-3.58,16.22-2.39,4.7-5.84,8.34-10.35,10.94-4.52,2.6-9.8,3.9-15.85,3.9s-11.3-1.26-15.74-3.79Zm19.75-14.78c1.03-.92,1.78-2.33,2.24-4.22.46-1.88.69-4.36.69-7.42v-2.35c0-3.2-.23-5.78-.69-7.74-.46-1.96-1.23-3.4-2.29-4.32-1.07-.92-2.42-1.39-4.06-1.39-1.49,0-2.74.41-3.74,1.23-1,.82-1.74,2.13-2.24,3.95-.5,1.81-.82,4.18-.96,7.1v3.09c0,3.2.23,5.76.69,7.69.46,1.92,1.23,3.36,2.29,4.32s2.42,1.44,4.06,1.44,2.97-.46,4-1.39Z" fill="#34d399"/><path d="m153.22,82.13c-3.38-3.38-5.07-8.34-5.07-14.89v-26.47h-7.15v-16.22h7.15v-14.09h22.95v14.09h9.29v16.22h-9.29l.11,23.16c0,1.99.43,3.36,1.28,4.11.85.75,2.31,1.12,4.38,1.12,1.71,0,3.17-.18,4.38-.53l-.11,16.22c-1.85.78-3.86,1.37-6.03,1.76-2.17.39-4.36.59-6.56.59-6.83,0-11.94-1.69-15.32-5.07Z" fill="#34d399"/><path d="m190.42,17.45c-2.21-1.88-3.31-4.32-3.31-7.31s1.12-5.25,3.36-7.2c2.24-1.96,5.21-2.94,8.91-2.94s6.47.98,8.75,2.94c2.28,1.96,3.42,4.39,3.42,7.31s-1.14,5.32-3.42,7.2c-2.28,1.89-5.2,2.83-8.75,2.83-3.77,0-6.76-.94-8.97-2.83Zm-2.56,7.42h23.05v61.16h-23.05V24.87Z" fill="#34d399"/><path d="m221.58,1.07h22.2v37.14l1.81-2.24,9.29-11.42h27.75l-21.88,25.83,22.63,35.65h-23.8l-12.17-21.56-3.63,3.95v17.61h-22.2V1.07Z" fill="#34d399"/><path d="m294.8,84.85c-2.99-1.49-5.37-3.61-7.15-6.35-1.78-2.74-2.67-5.92-2.67-9.55,0-3.91,1.05-7.4,3.15-10.46,2.1-3.06,5.23-5.44,9.39-7.15,4.16-1.71,9.2-2.56,15.1-2.56h4.91v-2.24c0-2.2-.41-3.9-1.23-5.07-.82-1.17-2.19-1.76-4.11-1.76-1.28,0-2.33.23-3.15.69-.82.46-1.41,1.1-1.76,1.92-.36.82-.53,1.83-.53,3.04l-20.92-.11c0-3.91,1.1-7.51,3.31-10.78,2.2-3.27,5.35-5.91,9.45-7.9,4.09-1.99,8.84-2.99,14.25-2.99s9.85.98,13.77,2.94c3.91,1.96,6.95,4.7,9.13,8.22,2.17,3.52,3.25,7.67,3.25,12.43v23.48c.07,6.83.85,11.56,2.35,14.2v1.17h-19.21c-.43-.57-.84-1.35-1.23-2.35-.39-1-.69-2.03-.91-3.09-1.64,2.06-3.84,3.67-6.62,4.8-2.77,1.14-5.69,1.71-8.75,1.71-3.56,0-6.83-.75-9.82-2.24Zm20.12-13.66c1.32-.71,2.26-1.64,2.83-2.78v-8.75h-4.38c-2.42,0-4.36.68-5.82,2.03-1.46,1.35-2.19,3.13-2.19,5.34,0,1.49.48,2.74,1.44,3.74.96,1,2.26,1.49,3.9,1.49,1.49,0,2.9-.36,4.22-1.07Z" fill="#34d399"/><path d="m349.24,1.07h23.06v84.96h-23.06V1.07Z" fill="#34d399"/><path d="m389.9,84.85c-2.99-1.49-5.37-3.61-7.15-6.35-1.78-2.74-2.67-5.92-2.67-9.55,0-3.91,1.05-7.4,3.15-10.46,2.1-3.06,5.23-5.44,9.39-7.15,4.16-1.71,9.2-2.56,15.1-2.56h4.91v-2.24c0-2.2-.41-3.9-1.23-5.07-.82-1.17-2.19-1.76-4.11-1.76-1.28,0-2.33.23-3.15.69-.82.46-1.41,1.1-1.76,1.92-.36.82-.53,1.83-.53,3.04l-20.92-.11c0-3.91,1.1-7.51,3.31-10.78,2.2-3.27,5.35-5.91,9.45-7.9,4.09-1.99,8.84-2.99,14.25-2.99s9.85.98,13.77,2.94c3.91,1.96,6.95,4.7,9.13,8.22,2.17,3.52,3.25,7.67,3.25,12.43v23.48c.07,6.83.85,11.56,2.35,14.2v1.17h-19.21c-.43-.57-.84-1.35-1.23-2.35-.39-1-.69-2.03-.91-3.09-1.64,2.06-3.84,3.67-6.62,4.8-2.77,1.14-5.69,1.71-8.75,1.71-3.56,0-6.83-.75-9.82-2.24Zm20.12-13.66c1.32-.71,2.26-1.64,2.83-2.78v-8.75h-4.38c-2.42,0-4.36.68-5.82,2.03-1.46,1.35-2.19,3.13-2.19,5.34,0,1.49.48,2.74,1.44,3.74.96,1,2.26,1.49,3.9,1.49,1.49,0,2.9-.36,4.22-1.07Z" fill="#34d399"/></svg>
